<?xml version="1.0" encoding="utf-8"?>
<!-- Generator: Adobe Illustrator 24.2.0, SVG Export Plug-In . SVG Version: 6.00 Build 0)  -->
<svg version="1.1" id="Layer_1" xmlns="http://www.w3.org/2000/svg" xmlns:xlink="http://www.w3.org/1999/xlink" x="0px" y="0px"
	 viewBox="0 0 30 30" style="enable-background:new 0 0 30 30;" xml:space="preserve">
<style type="text/css">
	.st0{fill:#3962BD;}
	.st1{fill:#FFFFFF;}
</style>
<g>
	<g id="XMLID_2_">
		<g>
			<ellipse class="st0" cx="14.7" cy="15" rx="14.7" ry="15"/>
		</g>
		<g>
		</g>
	</g>
</g>
<g>
	<g id="XMLID_1_">
		<g>
			<path class="st1" d="M22.4,7.3c1.9,1.9,1.9,5,0,6.9l-3.3,3.3c-0.3,0.3-0.7,0.6-1.1,0.8c-1.1,0.6-2.4,0.8-3.5,0.5
				c-0.9-0.2-1.7-0.7-2.3-1.3c-0.2-0.2-0.5-0.5-0.6-0.8l1.7-1.7c0.1,0.3,0.3,0.6,0.5,0.8c1,1,2.6,1,3.6,0l3.3-3.3c1-1,1-2.6,0-3.6
				s-2.6-1-3.6,0l-1,1c-0.9-0.4-1.9-0.5-2.9-0.5l2.2-2.3C17.4,5.4,20.5,5.4,22.4,7.3z"/>
			<path class="st1" d="M12.1,14.2l-3.3,3.3c-1,1-1,2.6,0,3.6s2.6,1,3.6,0l1-1c0.9,0.4,1.9,0.5,2.9,0.5L14,22.7
				c-1.9,1.9-5,1.9-6.9,0s-1.9-5,0-6.9l3.3-3.3c0.3-0.3,0.7-0.6,1.1-0.8c2.2-1.2,5-0.5,6.5,1.6L16.3,15c-0.5-1.1-1.7-1.7-2.9-1.4
				C12.8,13.6,12.4,13.8,12.1,14.2z"/>
		</g>
	</g>
</g>
</svg>
